# xmcd
#
# Track frame offsets:
#	150
#	15009
#	25149
#	39705
#	51710
#	61149
#	76037
#	86543
#	102005
#	117022
#	128618
#	138259
#	148089
#	161082
#	175476
#	187950
#	200132
#	213299
#	226898
#	237561
#	248248
#	258456
#	272017
#	286233
#	299376
#	311728
#	322206
#	333750
#	343483
#
# Disc length: 4718 seconds
# Revision: 0
# Processed by: cddbd v1.5.2PL0 Copyright (c) Steve Scherf et al.
# Submitted via: dBpowerAMP V12.0
#
DISCID=ae126c1d
DTITLE=Reg Lindsay - 1958-1961 Singles CD3
DYEAR=1958
DGENRE=Country
TTITLE0=The Charms Of The City Aint For Me
TTITLE1=Cattle Call
TTITLE2=The Trader
TTITLE3=Open Up Your Heart
TTITLE4=Ill Keep On Loving You
TTITLE5=Kaw-Liga
TTITLE6=Think It Over Boys
TTITLE7=Dont Take Your Guns To Town
TTITLE8=The Most Beautiful Thing In The World
TTITLE9=Tom Dooley
TTITLE10=Hey Sheriff
TTITLE11=The Walkabout Rock And Roll
TTITLE12=She Lost Her Cowboy Pal
TTITLE13=The Ghost Of Tom Dooley
TTITLE14=The Auctioneer
TTITLE15=Dont Steal Daddys Medal
TTITLE16=The Girl In My Home Town
TTITLE17=The Wog
TTITLE18=The Battle Of New Orleans
TTITLE19=Where No One Stands Alone
TTITLE20=Ill Make You Sorry
TTITLE21=The Caribbean
TTITLE22=The Last Waltz With You
TTITLE23=The House Down Willow Lane
TTITLE24=Big Midnight Special
TTITLE25=South Pacific Shore
TTITLE26=Twinkle Chimes
TTITLE27=Just For Me
TTITLE28=It Tickles
EXTD=
EXTT0=
EXTT1=
EXTT2=
EXTT3=
EXTT4=
EXTT5=
EXTT6=
EXTT7=
EXTT8=
EXTT9=
EXTT10=
EXTT11=
EXTT12=
EXTT13=
EXTT14=
EXTT15=
EXTT16=
EXTT17=
EXTT18=
EXTT19=
EXTT20=
EXTT21=
EXTT22=
EXTT23=
EXTT24=
EXTT25=
EXTT26=
EXTT27=
EXTT28=
PLAYORDER=
